<svg xmlns="http://www.w3.org/2000/svg"
shape-rendering="geometricPrecision"
width="4000" height="4000" viewBox="0 0 1024 1024">
  <metadata>null</metadata>

<path d="
M 236.008 0.04
C 234.258 2.732 231.205 5.129 228.937 7.424
C 224.283 12.132 219.656 16.868 214.984 21.557
C 201.332 35.256 188.023 49.302 174.297 62.93
C 136.467 100.489 99.649 139.092 62.17 177.002
C 47.136 192.209 32.29 207.595 17.075 222.622
C 12.861 226.785 8.753 231.054 4.577 235.256
C 3.225 236.616 0.41 239.085 0.031 240.986
C -0.72 196.187 0.037 151.306 0.034 106.499
C 0.032 82.499 0.033 58.499 0.034 34.499
C 0.035 23.014 -0.302 11.471 -0.004 -0.005
C 48.975 0.716 98.016 0.044 147.001 0.044
C 166.835 0.044 186.668 0.043 206.501 0.044
C 216.287 0.045 226.241 0.576 236.008 0.04 Z"
opacity="1" fill="rgb(128,137,144)" fill-rule="evenodd" />
<path d="
M 0.031 240.986
C 0.41 239.085 3.225 236.616 4.577 235.256
C 8.753 231.054 12.861 226.785 17.075 222.622
C 32.29 207.595 47.136 192.209 62.17 177.002
C 99.649 139.092 136.467 100.489 174.297 62.93
C 188.023 49.302 201.332 35.256 214.984 21.557
C 219.656 16.868 224.283 12.132 228.937 7.424
C 231.205 5.129 234.258 2.732 236.008 0.04
C 270.487 -0.486 305.019 0.047 339.503 0.043
C 353.44 0.041 367.597 0.77 381.51 0.028
C 379.083 1.665 377.117 4.524 375.017 6.591
C 369.651 11.873 364.401 17.276 359.136 22.657
C 344.513 37.603 329.594 52.275 314.935 67.194
C 269.756 113.175 224.212 158.758 179.256 204.943
C 167.942 216.567 156.34 227.922 144.927 239.448
C 116.01 268.651 87.262 298.031 58.213 327.106
C 45.197 340.133 32.473 353.434 19.617 366.612
C 15.339 370.997 11.017 375.351 6.714 379.712
C 4.362 382.096 1.877 384.188 0.029 387.002
C 0.022 386.332 0.041 385.663 0.049 384.993
C 0.074 352.157 0.006 319.32 0.02 286.484
C 0.026 271.327 -0.257 256.14 0.031 240.986 Z"
opacity="1" fill="rgb(54,70,80)" fill-rule="evenodd" />
<path d="
M 184.425 617.585
C 184.48 617.377 184.536 617.168 184.591 616.96
C 187.668 616.521 190.894 616.752 193.997 616.75
C 198.726 616.748 203.497 616.624 208.221 616.844
C 208.511 628.048 208.192 639.293 208.228 650.503
C 208.236 653.169 208.255 655.838 208.213 658.503
C 208.201 659.275 207.849 660.913 208.471 661.416
C 216.778 660.986 225.189 661.431 233.51 661.45
C 241.102 661.468 248.787 661.019 256.368 661.345
C 257.017 657.953 256.437 653.968 256.443 650.513
C 256.456 642.767 256.436 634.989 256.591 627.248
C 256.636 625 256.709 622.75 256.694 620.501
C 256.686 619.346 256.422 617.913 256.765 616.829
C 264.474 616.447 272.476 616.435 280.187 616.856
C 279.834 645.056 280.205 673.298 280.184 701.504
C 280.179 708.17 280.248 714.836 280.21 721.502
C 280.201 723.165 280.163 724.83 280.095 726.492
C 280.089 726.644 280.171 727.808 280.085 727.834
C 272.368 728.615 264.332 726.814 256.604 727.722
C 256.075 726.727 256.439 724.829 256.443 723.712
C 256.454 720.813 256.462 717.914 256.47 715.014
C 256.497 704.334 255.924 693.507 256.489 682.846
C 255.629 682.23 253.758 682.531 252.703 682.53
C 249.636 682.526 246.57 682.551 243.504 682.581
C 235.672 682.658 227.841 682.6 220.009 682.606
C 216.113 682.609 212.103 682.316 208.228 682.723
C 208.292 692.982 208.28 703.245 208.278 713.505
C 208.278 716.672 208.295 719.839 208.271 723.005
C 208.26 724.494 207.964 726.194 208.217 727.659
C 205.061 727.351 201.684 727.659 198.507 727.67
C 193.832 727.688 189.117 727.528 184.454 727.841
C 184.154 727.102 184.337 725.822 184.328 725.001
C 184.302 722.668 184.261 720.337 184.263 718.004
C 184.267 710.504 184.238 703.005 184.221 695.505
C 184.185 679.005 184.235 662.505 184.215 646.004
C 184.204 636.649 183.54 626.896 184.425 617.585 Z"
opacity="1" fill="rgb(255,255,255)" fill-rule="evenodd" />
<path d="
M 293.956 701.109
C 294.814 697.415 295.366 693.955 297.399 690.635
C 305.595 677.249 323.333 677.338 337.147 678.298
C 340.698 678.544 344.298 679.426 347.855 679.332
C 348.424 678.114 348.306 676.554 348.274 675.247
C 348.113 668.761 343.717 663.673 337.414 662.194
C 330.8 660.641 322.838 661.845 316.954 665.211
C 314.604 666.555 312.786 668.454 310.62 670.009
C 306.439 665.566 301.474 660.029 296.135 657
C 296.818 655.721 298.377 654.626 299.485 653.692
C 302.741 650.947 306.337 648.77 310.204 647.002
C 313.261 645.604 316.518 644.724 319.772 643.92
C 324.386 642.779 329.276 642.531 334.009 642.668
C 344.727 642.98 356.18 645.492 363.603 653.882
C 371.048 662.295 370.97 672.924 370.933 683.497
C 370.899 692.931 370.937 702.365 370.915 711.799
C 370.907 715.476 370.667 719.797 371.584 723.372
C 371.891 724.568 372.401 725.853 373.048 726.903
C 373.162 727.089 373.81 727.963 373.77 728.104
C 368.26 727.397 362.56 727.703 357.006 727.705
C 354.712 727.705 352.02 728.084 349.784 727.599
C 349.658 724.741 349.245 721.823 349.043 718.953
C 347.199 720.525 345.74 722.526 343.796 723.998
C 340.137 726.768 335.687 728.603 331.205 729.532
C 315.513 732.784 297.092 725.468 294.198 708.351
C 293.794 705.961 293.651 703.523 293.956 701.109 Z
M 315.916 702.098
C 315.457 707.287 319.458 711.161 324.231 712.46
C 331.485 714.435 339.974 712.721 345.462 707.397
C 348.052 704.884 348.381 701.947 348.452 698.472
C 348.475 697.363 348.836 695.724 347.987 694.882
C 345.646 693.366 341.936 693.454 339.203 693.312
C 331.472 692.91 317.847 692.001 315.916 702.098 Z"
opacity="1" fill="rgb(255,255,255)" fill-rule="evenodd" />
<path d="
M 512.877 251.83
C 512.128 255.354 512.372 259.132 512.403 262.716
C 512.445 267.642 512.419 272.569 512.381 277.495
C 512.348 281.663 512.319 285.831 512.299 289.999
C 512.288 292.176 512.005 294.615 512.451 296.753
C 502.217 307.505 493.551 319.877 484.127 331.332
C 482.089 333.809 480.062 336.302 478.082 338.826
C 476.774 340.494 475.452 342.577 473.736 343.841
C 468.785 347.487 462.817 350.05 457.504 353.137
C 446.59 359.478 435.601 365.691 424.657 371.979
C 420.958 374.105 417.314 376.321 413.65 378.506
C 411.883 379.559 409.765 380.459 408.279 381.891
C 408.703 394.563 408.307 407.324 408.299 420.005
C 408.294 427.681 409.08 435.885 408.09 443.497
C 408.05 445.898 407.661 448.74 408.346 451.074
C 404.257 454.65 398.528 456.967 393.85 459.735
C 383.165 466.057 372.189 471.872 361.524 478.23
C 357.743 480.483 353.835 482.465 349.947 484.519
C 348.392 485.34 346.113 486.293 345.419 488.008
C 345.048 483.539 345.39 478.953 345.351 474.47
C 345.258 445.815 345.353 417.157 345.279 388.501
C 345.255 378.834 345.244 369.168 345.242 359.501
C 345.241 354.445 344.719 348.989 345.385 343.98
C 355.622 337.276 366.916 331.847 377.655 325.979
C 389.626 319.437 401.44 312.612 413.403 306.057
C 427.277 298.456 441.464 291.291 455.07 283.219
C 467.595 275.788 480.489 268.829 493.307 261.919
C 498.266 259.246 503.288 256.632 508.13 253.751
C 508.942 253.268 512.517 250.537 512.877 251.83 Z"
opacity="1" fill="rgb(118,199,255)" fill-rule="evenodd" />
<path d="
M 345.419 488.008
C 346.113 486.293 348.392 485.34 349.947 484.519
C 353.835 482.465 357.743 480.483 361.524 478.23
C 372.189 471.872 383.165 466.057 393.85 459.735
C 398.528 456.967 404.257 454.65 408.346 451.074
C 423.426 442.769 437.971 433.48 452.913 424.917
C 472.243 413.84 491.319 402.312 510.759 391.41
C 520.165 386.136 529.336 380.434 538.675 375.04
C 541.891 373.182 545.005 370.832 548.374 369.284
C 549.152 371.107 547.846 373.455 547.244 375.147
C 545.599 379.773 544.112 384.447 542.572 389.107
C 538.408 401.717 534.682 414.729 531.319 427.574
C 530.402 431.074 529.249 434.502 528.31 437.994
C 527.818 439.827 527.162 441.85 527.395 443.754
C 525.505 445.047 523.336 446.033 521.361 447.205
C 512.98 452.176 504.596 457.142 496.16 462.02
C 493.46 463.581 490.743 465.123 488.079 466.743
C 487.195 467.281 485.467 467.804 484.954 468.702
C 478.409 471.847 472.414 476.297 466.185 480.018
C 450.991 489.097 436.036 498.628 420.729 507.512
C 414.88 510.906 409.045 514.374 403.337 518.002
C 401.676 519.057 398.15 520.496 397.346 522.321
C 395.761 522.127 393.819 520.614 392.44 519.814
C 389.04 517.842 385.617 515.909 382.227 513.922
C 375.421 509.934 368.52 506.083 361.603 502.288
C 356.37 499.418 351.191 496.165 345.711 493.791
C 344.711 492.582 345.47 489.524 345.419 488.008 Z"
opacity="1" fill="rgb(57,171,255)" fill-rule="evenodd" />
<path d="
M 462.743 675.096
C 465.117 683.019 469.039 690.752 470.712 698.869
C 471.148 698.942 471.26 697.25 471.328 696.97
C 471.833 694.896 472.537 692.863 473.1 690.799
C 475.594 681.66 478.022 672.503 480.612 663.39
C 482.297 657.042 483.959 650.66 486.051 644.433
C 488.214 643.898 490.78 644.239 493 644.238
C 498.506 644.236 504.129 644.565 509.618 644.258
C 503.303 663.069 497.813 682.166 491.752 701.066
C 488.895 709.972 486.582 719.121 483.281 727.876
C 477.857 727.786 472.436 727.716 467.007 727.721
C 465 727.723 462.033 728.352 460.167 727.762
C 459.418 724.226 457.871 720.778 456.715 717.357
C 454.25 710.063 451.579 702.84 449.088 695.557
C 447.843 691.918 446.705 688.222 445.329 684.63
C 444.814 683.287 444.084 682.009 443.625 680.647
C 443.506 680.293 443.622 679.778 443.311 679.572
C 443.105 679.435 443.142 680.037 443.058 680.27
C 438.253 691.838 434.954 704.164 430.791 715.983
C 429.84 718.681 428.902 721.382 428.009 724.1
C 427.614 725.302 427.427 726.719 426.827 727.834
C 423.495 727.514 420.016 727.744 416.666 727.748
C 413.644 727.751 410.507 727.533 407.5 727.867
C 406.226 727.864 404.911 727.867 403.647 727.716
C 402.275 722.228 400.101 716.842 398.359 711.457
C 395.547 702.766 392.693 694.091 389.879 685.402
C 386.844 676.032 383.785 666.659 380.872 657.252
C 379.554 652.994 378.406 648.623 376.807 644.464
C 384.745 644.123 392.701 644.64 400.636 644.345
C 401.23 648.474 402.934 652.686 404.123 656.685
C 406.442 664.491 408.953 672.285 411.095 680.138
C 412.205 684.208 413.447 688.241 414.656 692.284
C 415.196 694.091 415.454 696.694 416.52 698.228
C 417.28 696.747 417.541 694.854 418.042 693.259
C 419.286 689.297 420.529 685.337 421.68 681.346
C 424.323 672.186 427.327 662.984 430.678 654.056
C 431.861 650.905 432.703 647.616 434.043 644.527
C 438.072 643.89 442.429 644.29 446.502 644.285
C 448.323 644.283 450.657 643.892 452.405 644.383
C 454.448 650.667 456.453 656.975 458.696 663.192
C 460.058 666.967 462.087 671.161 462.743 675.096 Z"
opacity="1" fill="rgb(255,255,255)" fill-rule="evenodd" />
<path d="
M 484.954 468.702
C 490.864 481.614 497.199 494.362 503.36 507.166
C 505.328 511.257 507.437 515.279 509.476 519.335
C 510.239 520.855 510.947 523.284 512.209 524.446
C 511.64 536.392 512.262 548.536 512.275 560.501
C 512.284 568.709 511.425 577.46 512.445 585.587
C 511.451 584.952 510.205 584.688 509.16 584.102
C 505.548 582.077 501.867 580.178 498.252 578.16
C 488.606 572.776 478.917 567.426 469.178 562.211
C 445.035 549.284 421.457 535.268 397.346 522.321
C 398.15 520.496 401.676 519.057 403.337 518.002
C 409.045 514.374 414.88 510.906 420.729 507.512
C 436.036 498.628 450.991 489.097 466.185 480.018
C 472.414 476.297 478.409 471.847 484.954 468.702 Z"
opacity="1" fill="rgb(71,79,85)" fill-rule="evenodd" />
<path d="
M 512.877 251.83
C 514.258 251.934 515.431 252.857 516.619 253.513
C 519.038 254.847 521.427 256.236 523.841 257.58
C 532.954 262.652 542.039 267.782 551.153 272.855
C 565.237 280.695 579.156 288.83 593.229 296.695
C 598.582 299.687 604.113 302.37 609.441 305.401
C 622.41 312.778 635.104 320.93 648.514 327.499
C 655.181 331.07 661.698 334.976 668.319 338.642
C 671.612 340.466 676.05 341.879 678.832 344.44
C 678.337 345.801 676.235 347.027 675.15 347.976
C 672.232 350.528 669.101 352.974 666.493 355.851
C 664.222 358.357 662.395 361.212 660.064 363.674
C 653.79 370.302 646.611 376.41 639.638 382.281
C 636.465 384.952 633.319 388.007 629.703 390.079
C 628.956 390.367 627.843 389.639 627.188 389.293
C 625.056 388.164 622.924 387.027 620.813 385.859
C 612.656 381.347 604.416 376.982 596.311 372.374
C 583.264 364.957 570.218 357.477 557.047 350.282
C 552.69 347.902 548.407 345.438 544.13 342.916
C 542.471 341.938 540.008 341.083 538.672 339.709
C 537.256 338.253 536.332 335.986 535.322 334.235
C 533.195 330.547 531.085 326.846 529.01 323.129
C 525.518 316.877 521.832 310.67 517.962 304.646
C 516.587 302.507 514.733 300.651 513.396 298.536
C 513.085 297.938 512.743 297.362 512.451 296.753
C 512.005 294.615 512.288 292.176 512.299 289.999
C 512.319 285.831 512.348 281.663 512.381 277.495
C 512.419 272.569 512.445 267.642 512.403 262.716
C 512.372 259.132 512.128 255.354 512.877 251.83 Z"
opacity="1" fill="rgb(53,147,241)" fill-rule="evenodd" />
<path d="
M 512.209 524.446
C 512.794 523.004 514.19 521.752 515.224 520.604
C 523.134 512.54 530.796 503.907 539.184 496.348
C 541.201 494.529 543.141 492.611 545.194 490.834
C 545.971 490.162 546.842 489.119 547.862 488.888
C 551.372 497.409 555.36 505.786 559.137 514.217
C 562.351 521.392 565.216 528.73 568.424 535.913
C 570.137 539.75 572.013 543.504 573.688 547.359
C 574.009 548.099 575.417 550.519 574.831 551.237
C 570.693 553.413 566.595 555.778 562.396 557.823
C 550.657 564.096 539.288 571.085 527.454 577.195
C 524.143 578.904 520.785 580.702 517.608 582.646
C 515.99 583.636 514.247 585.002 512.445 585.587
C 511.425 577.46 512.284 568.709 512.275 560.501
C 512.262 548.536 511.64 536.392 512.209 524.446 Z"
opacity="1" fill="rgb(141,213,255)" fill-rule="evenodd" />
<path d="
M 540.747 622.494
C 540.258 626.912 540.641 631.566 540.643 636.011
C 540.647 644.344 540.621 652.677 540.647 661.01
C 540.659 664.841 540.61 668.673 540.654 672.505
C 540.672 674.064 540.301 676.11 540.871 677.575
C 541.974 677.008 542.718 675.752 543.568 674.86
C 545.551 672.777 547.436 670.602 549.423 668.525
C 553.881 663.865 558.405 659.268 562.821 654.57
C 566 651.188 568.969 647.338 572.525 644.347
C 575.179 643.617 578.741 644.213 581.499 644.216
C 587.498 644.221 593.533 644.115 599.523 644.331
C 599.059 645.53 597.481 646.684 596.612 647.673
C 594.412 650.172 592.209 652.645 589.91 655.053
C 582.192 663.138 573.868 670.898 566.594 679.377
C 566.872 680.756 568.199 681.95 568.953 683.141
C 570.916 686.24 573.051 689.258 575.139 692.274
C 580.719 700.33 586.344 708.359 591.899 716.432
C 594.363 720.012 597.876 723.849 599.522 727.878
C 592.874 727.516 586.162 727.734 579.504 727.751
C 577.901 727.756 576.298 727.764 574.696 727.818
C 574.007 727.841 572.885 728.04 572.31 727.65
C 567.542 719.275 561.809 711.264 556.422 703.273
C 555.052 701.242 553.635 699.239 552.243 697.223
C 551.797 696.578 551.305 695.411 550.532 695.197
C 548.154 697.491 546.013 700.011 543.708 702.38
C 542.883 703.228 541.111 704.334 540.754 705.485
C 540.149 707.437 540.639 710.446 540.628 712.503
C 540.61 715.837 540.629 719.171 540.618 722.505
C 540.613 724.147 540.352 726.079 540.683 727.687
C 535.19 727.329 529.515 727.682 524.006 727.709
C 522.618 727.716 521.229 727.714 519.841 727.749
C 519.369 727.761 518.482 727.992 518.123 727.734
C 518.479 719.185 518.164 710.559 518.141 701.999
C 518.085 681.17 517.688 660.339 517.887 639.508
C 517.849 633.23 518.204 626.885 518.042 620.624
C 517.973 617.992 517.685 614.854 518.281 612.287
C 525.708 612.515 533.357 612.43 540.78 612.101
C 540.389 615.503 540.855 619.068 540.747 622.494 Z"
opacity="1" fill="rgb(255,255,255)" fill-rule="evenodd" />
<path d="
M 548.374 369.284
C 548.839 369.039 549.291 368.534 549.794 368.419
C 550.891 371.473 552.565 374.374 553.912 377.343
C 556.39 382.806 558.851 388.264 561.415 393.687
C 566.591 404.635 571.147 415.875 576.32 426.821
C 579.142 432.793 582.096 438.814 584.449 444.988
C 585.141 446.805 587.258 449.664 587.225 451.545
C 587.643 453.664 588.992 455.624 589.818 457.606
C 591.931 462.671 594.158 467.678 596.349 472.709
C 601.686 484.961 607.04 497.216 612.431 509.447
C 614.87 514.981 617.683 520.427 619.916 526.036
C 619.004 527.023 617.274 527.538 616.098 528.173
C 613.053 529.819 610.007 531.442 606.993 533.145
C 600.142 537.015 593.293 540.885 586.416 544.703
C 582.556 546.846 578.867 549.425 574.831 551.237
C 575.417 550.519 574.009 548.099 573.688 547.359
C 572.013 543.504 570.137 539.75 568.424 535.913
C 565.216 528.73 562.351 521.392 559.137 514.217
C 555.36 505.786 551.372 497.409 547.862 488.888
C 547.525 486.951 546.103 484.923 545.261 483.151
C 543.505 479.457 541.89 475.694 540.166 471.984
C 535.841 462.676 532.362 452.738 527.395 443.754
C 527.162 441.85 527.818 439.827 528.31 437.994
C 529.249 434.502 530.402 431.074 531.319 427.574
C 534.682 414.729 538.408 401.717 542.572 389.107
C 544.112 384.447 545.599 379.773 547.244 375.147
C 547.846 373.455 549.152 371.107 548.374 369.284 Z"
opacity="1" fill="rgb(118,199,255)" fill-rule="evenodd" />
<path d="
M 1023.96 566.975
C 1024.451 579.437 1023.959 592.025 1023.961 604.499
C 1023.964 629.833 1023.962 655.166 1023.961 680.499
C 1023.96 691.779 1023.405 703.216 1023.964 714.479
C 1022.715 714.26 1022.04 715.355 1021.194 716.184
C 1019.055 718.279 1016.869 720.328 1014.727 722.421
C 1006.08 730.872 997.591 739.514 989.128 748.149
C 966.565 771.171 943.949 794.166 921.207 817.021
C 913.418 824.849 905.737 832.785 898.059 840.722
C 893.433 845.503 888.469 850.086 884.117 855.115
C 878.891 859.837 874.196 865.224 869.252 870.235
C 859.729 879.887 850.204 889.552 840.743 899.264
C 813.457 927.272 786.005 955.107 758.617 983.027
C 748.641 993.197 738.451 1003.215 728.719 1013.615
C 726.429 1016.062 724.174 1018.539 721.819 1020.925
C 721.066 1021.688 719.558 1022.864 719.963 1023.974
C 709.721 1024.546 699.264 1023.965 689 1023.965
C 663.5 1023.967 638 1023.965 612.5 1023.965
C 599.705 1023.966 586.692 1023.28 573.921 1023.996
C 573.876 1023.184 574.8 1022.25 575.367 1021.685
C 576.615 1020.441 577.866 1019.197 579.1 1017.938
C 584.478 1012.457 589.782 1006.876 595.076 1001.315
C 616.82 978.476 638.877 955.854 661.136 933.514
C 673.246 921.359 685.079 908.907 697.11 896.664
C 723.807 869.5 750.737 842.559 777.188 815.158
C 816.401 774.536 856.54 734.749 895.996 694.356
C 905.399 684.73 915.094 675.378 924.417 665.675
C 948.827 640.27 974.125 615.71 998.929 590.691
C 1005.012 584.555 1011.162 578.479 1017.347 572.445
C 1018.76 571.066 1020.284 569.781 1021.647 568.353
C 1022.373 567.593 1022.898 566.841 1023.96 566.975 Z"
opacity="1" fill="rgb(48,64,73)" fill-rule="evenodd" />
<path d="
M 587.225 451.545
C 594.639 442.488 603.491 434.538 611.686 426.184
C 626.199 411.389 640.595 396.461 655.175 381.74
C 660.784 376.078 666.202 370.113 672.109 364.762
C 673.6 363.412 675.067 361.985 676.595 360.683
C 677.067 360.281 677.807 359.358 678.401 359.335
C 678.933 362.765 678.736 366.52 678.788 370.006
C 678.891 376.836 678.88 383.669 678.885 390.5
C 678.896 409.668 678.935 428.835 678.938 448.003
C 678.939 458.337 678.855 468.67 678.829 479.004
C 678.821 482.336 678.898 485.666 678.901 488.997
C 678.902 490.392 679.19 492.063 678.844 493.416
C 676.518 495.273 673.12 496.574 670.49 498.013
C 665.637 500.667 660.873 503.483 656.011 506.125
C 647.148 510.943 638.319 515.829 629.485 520.697
C 626.308 522.448 623.203 524.507 619.916 526.036
C 617.683 520.427 614.87 514.981 612.431 509.447
C 607.04 497.216 601.686 484.961 596.349 472.709
C 594.158 467.678 591.931 462.671 589.818 457.606
C 588.992 455.624 587.643 453.664 587.225 451.545 Z"
opacity="1" fill="rgb(255,138,98)" fill-rule="evenodd" />
<path d="
M 674.55 708.964
C 676.17 710.671 678.424 712.64 680.342 713.999
C 679.617 715.815 676.635 717.461 675.17 718.721
C 668.385 724.56 660.489 727.448 651.906 729.508
C 644.086 731.016 635.305 730.09 627.799 727.551
C 620.784 725.178 613.917 721.126 609.189 715.33
C 594.614 697.464 596.554 668.471 613.505 652.93
C 631.029 636.863 663.679 639.124 676.465 660.143
C 680.357 666.539 682.596 673.562 683.101 681.021
C 683.341 684.568 682.462 688.749 683.221 692.193
C 681.761 691.909 679.999 692.169 678.506 692.175
C 675.172 692.189 671.839 692.284 668.505 692.297
C 658.006 692.338 647.506 692.297 637.006 692.287
C 633.34 692.284 629.674 692.286 626.007 692.297
C 624.996 692.3 622.707 691.924 622.06 692.728
C 622.426 694.928 622.844 696.923 623.861 698.942
C 629.588 710.313 642.695 713.187 654.036 708.903
C 657.04 707.768 659.848 706.269 662.339 704.234
C 663.313 703.439 664.287 701.508 665.473 701.226
C 668.07 704.087 671.419 706.716 674.55 708.964 Z
M 622.973 675.571
C 622.877 676.109 622.747 676.624 622.6 677.151
C 631.509 676.625 640.576 677.086 649.502 677.069
C 653.179 677.062 657.155 677.446 660.795 676.889
C 659.689 665.721 647.278 659.093 637.031 661.671
C 629.996 663.44 625.091 668.774 622.973 675.571 Z"
opacity="1" fill="rgb(255,255,255)" fill-rule="evenodd" />
<path d="
M 715.785 665.073
C 718.169 673.316 722.067 681.24 724.892 689.352
C 725.873 692.167 726.885 694.968 727.888 697.774
C 728.191 698.623 728.289 699.971 728.849 700.661
C 730.995 695.37 732.336 689.662 734.173 684.242
C 738.714 670.844 743.251 657.37 748.425 644.201
C 750.53 643.638 753.303 644.2 755.497 644.173
C 761.151 644.103 766.864 644.123 772.51 644.353
C 769.805 652.508 766.065 660.393 762.982 668.419
C 756.706 684.76 750.483 701.117 744.344 717.511
C 742.448 722.574 740.443 727.603 738.665 732.709
C 736.018 740.31 733.206 748.659 727.294 754.41
C 719.969 761.535 708.524 762.513 698.881 761.524
C 696.561 761.286 693.959 761.326 691.707 760.752
C 692.491 754.426 692.922 748.075 693.622 741.745
C 694.193 741.162 694.845 741.548 695.558 741.684
C 697.133 741.983 698.695 742.247 700.298 742.358
C 704.897 742.679 709.556 742.122 712.946 738.706
C 714.847 736.792 715.884 734.112 716.758 731.61
C 717.075 730.703 717.629 729.553 717.582 728.572
C 717.514 727.14 716.434 725.461 715.857 724.17
C 714.643 721.457 713.435 718.692 712.362 715.92
C 709.758 709.19 706.941 702.523 704.116 695.884
C 702.442 691.949 701.349 686.991 698.968 683.439
C 697.879 678.921 695.257 674.246 693.438 669.946
C 689.877 661.526 686.434 653.038 682.885 644.629
C 688.341 643.952 693.997 644.229 699.5 644.254
C 702.234 644.266 705.474 643.845 708.148 644.394
C 710.168 651.445 713.684 658.047 715.785 665.073 Z"
opacity="1" fill="rgb(255,255,255)" fill-rule="evenodd" />
<path d="
M 884.117 855.115
C 884.958 854.999 884.805 855.821 885.425 856.273
C 885.775 856.529 885.857 855.821 886.2 856.052
C 887.221 856.74 887.52 858.469 887.899 859.539
C 888.31 860.701 889.21 861.118 889.726 862.099
C 890.012 862.642 889.861 863.183 890.221 863.74
C 890.706 864.492 891.391 865.248 891.711 866.092
C 891.929 866.668 891.653 867.242 891.979 867.826
C 892.344 868.479 893.038 868.746 893.328 869.486
C 893.819 870.737 893.741 872.127 894.296 873.362
C 894.749 874.37 895.56 875.176 896.085 876.145
C 896.719 877.313 896.897 878.679 897.503 879.867
C 899.894 884.548 901.956 889.336 904 894.175
C 908.295 903.922 912.175 913.852 916.687 923.51
C 917.924 926.157 919.108 928.83 920.292 931.506
C 920.71 932.451 921.553 933.741 921.332 934.829
C 921.156 935.699 919.571 936.495 918.88 936.948
C 916.702 938.375 915.835 940.395 913.317 941.488
C 912.317 941.923 910.531 942.018 909.945 943.084
C 909.942 943.09 909.703 943.833 909.701 943.839
C 908.848 945.938 911.751 944.138 912.27 945.562
C 912.605 946.483 911.841 946.166 911.464 946.578
C 911.121 946.953 911.541 947.441 911.22 947.831
C 910.869 948.257 910.679 947.928 910.349 948.457
C 909.734 948.743 909.05 949.41 908.345 949.42
C 907.15 949.438 906.578 947.251 906.079 946.466
C 905.537 945.612 904.259 945.492 903.447 945.587
C 902.871 945.655 901.85 945.58 901.442 946.084
C 901.107 946.499 901.435 946.841 900.809 947.084
C 900.348 947.264 899.885 946.916 899.438 947.082
C 898.361 947.483 897.489 948.288 896.309 948.448
C 895.065 948.618 893.962 947.937 892.739 947.925
C 890.8 947.907 888.269 948.825 886.487 949.563
C 870.667 956.118 855.468 964.329 840.262 972.183
C 835.53 974.627 830.588 976.696 825.945 979.3
C 819.715 982.794 813.857 986.864 807.672 990.419
C 801.201 994.138 794.572 997.556 788.038 1001.156
C 778.725 1006.287 769.497 1011.554 760.236 1016.782
C 758.248 1017.904 756.446 1019.249 754.543 1020.468
C 753.622 1021.058 752.496 1020.849 751.954 1022.03
C 751.698 1022.589 751.904 1023.383 752.006 1023.97
C 741.34 1024.064 730.625 1024.181 719.963 1023.974
C 719.558 1022.864 721.066 1021.688 721.819 1020.925
C 724.174 1018.539 726.429 1016.062 728.719 1013.615
C 738.451 1003.215 748.641 993.197 758.617 983.027
C 786.005 955.107 813.457 927.272 840.743 899.264
C 850.204 889.552 859.729 879.887 869.252 870.235
C 874.196 865.224 878.891 859.837 884.117 855.115 Z"
opacity="1" fill="rgb(116,84,76)" fill-rule="evenodd" />
<path d="
M 910.349 948.457
C 910.738 948.675 911.706 949.996 911.947 949.934
C 910.435 952.091 908.273 953.892 906.468 955.806
C 902.496 960.017 898.442 964.149 894.422 968.315
C 882.225 980.954 869.803 993.356 857.716 1006.092
C 853.509 1010.525 849.288 1014.936 844.975 1019.267
C 844.048 1020.197 840.717 1022.594 841.477 1023.97
C 832.045 1024.455 822.448 1023.964 812.999 1023.965
C 792.669 1023.967 772.336 1023.888 752.006 1023.97
C 751.904 1023.383 751.698 1022.589 751.954 1022.03
C 752.496 1020.849 753.622 1021.058 754.543 1020.468
C 756.446 1019.249 758.248 1017.904 760.236 1016.782
C 769.497 1011.554 778.725 1006.287 788.038 1001.156
C 794.572 997.556 801.201 994.138 807.672 990.419
C 813.857 986.864 819.715 982.794 825.945 979.3
C 830.588 976.696 835.53 974.627 840.262 972.183
C 855.468 964.329 870.667 956.118 886.487 949.563
C 888.269 948.825 890.8 947.907 892.739 947.925
C 893.962 947.937 895.065 948.618 896.309 948.448
C 897.489 948.288 898.361 947.483 899.438 947.082
C 899.885 946.916 900.348 947.264 900.809 947.084
C 901.435 946.841 901.107 946.499 901.442 946.084
C 901.85 945.58 902.871 945.655 903.447 945.587
C 904.259 945.492 905.537 945.612 906.079 946.466
C 906.578 947.251 907.15 949.438 908.345 949.42
C 909.05 949.41 909.734 948.743 910.349 948.457 Z"
opacity="1" fill="rgb(115,79,70)" fill-rule="evenodd" />
<path d="
M 770.985 684.123
C 771.413 681.524 771.381 678.896 771.931 676.291
C 773.362 669.507 776.267 663.014 780.74 657.674
C 795.418 640.154 825.649 636.3 842.388 653.239
C 849.711 660.65 853.604 670.541 854.573 680.809
C 854.932 684.602 854.479 688.413 854.743 692.193
C 834.382 692.254 813.977 691.844 793.621 692.307
C 794.144 695.13 794.85 697.79 796.35 700.277
C 805.035 714.679 825.993 713.226 836.55 701.691
C 837.591 701.545 839.232 703.849 840.078 704.546
C 842.671 706.681 845.21 708.885 847.801 711.023
C 848.786 711.836 850.597 712.782 851.082 713.984
C 836.969 732.239 805.715 735.103 787.711 721.267
C 776.179 712.405 770.1 698.659 770.985 684.123 Z
M 793.995 676.076
C 793.811 676.718 793.915 676.381 793.677 677.087
C 799.079 676.675 804.592 676.979 810.008 676.975
C 817.452 676.97 824.922 676.78 832.361 676.905
C 831.202 665.549 818.869 659.146 808.516 661.702
C 801.708 663.383 795.742 669.239 793.995 676.076 Z"
opacity="1" fill="rgb(255,255,255)" fill-rule="evenodd" />
<path d="
M 911.947 949.934
C 918.202 944.329 923.726 937.774 929.715 931.876
C 952.127 909.803 973.477 886.637 995.964 864.652
C 1002.936 857.836 1009.772 850.883 1016.746 844.067
C 1018.315 842.535 1019.935 841.039 1021.438 839.444
C 1022.249 838.583 1022.701 837.76 1023.973 837.989
C 1024.309 875.818 1023.962 913.669 1023.961 951.501
C 1023.96 975.638 1024.618 999.878 1023.992 1024.003
C 1008.424 1023.167 992.592 1023.967 976.999 1023.967
C 946.833 1023.967 916.666 1023.965 886.499 1023.967
C 871.513 1023.968 856.455 1024.396 841.477 1023.97
C 840.717 1022.594 844.048 1020.197 844.975 1019.267
C 849.288 1014.936 853.509 1010.525 857.716 1006.092
C 869.803 993.356 882.225 980.954 894.422 968.315
C 898.442 964.149 902.496 960.017 906.468 955.806
C 908.273 953.892 910.435 952.091 911.947 949.934 Z"
opacity="1" fill="rgb(96,105,111)" fill-rule="evenodd" />
<path d="
M 1023.964 714.479
C 1024.366 724.946 1023.959 735.519 1023.959 745.998
C 1023.96 767.164 1023.96 788.331 1023.959 809.497
C 1023.959 818.96 1023.521 828.54 1023.973 837.989
C 1022.701 837.76 1022.249 838.583 1021.438 839.444
C 1019.935 841.039 1018.315 842.535 1016.746 844.067
C 1009.772 850.883 1002.936 857.836 995.964 864.652
C 973.477 886.637 952.127 909.803 929.715 931.876
C 923.726 937.774 918.202 944.329 911.947 949.934
C 911.706 949.996 910.738 948.675 910.349 948.457
C 910.679 947.928 910.869 948.257 911.22 947.831
C 911.541 947.441 911.121 946.953 911.464 946.578
C 911.841 946.166 912.605 946.483 912.27 945.562
C 911.751 944.138 908.848 945.938 909.701 943.839
C 909.703 943.833 909.942 943.09 909.945 943.084
C 910.531 942.018 912.317 941.923 913.317 941.488
C 915.835 940.395 916.702 938.375 918.88 936.948
C 919.571 936.495 921.156 935.699 921.332 934.829
C 921.553 933.741 920.71 932.451 920.292 931.506
C 919.108 928.83 917.924 926.157 916.687 923.51
C 912.175 913.852 908.295 903.922 904 894.175
C 901.956 889.336 899.894 884.548 897.503 879.867
C 896.897 878.679 896.719 877.313 896.085 876.145
C 895.56 875.176 894.749 874.37 894.296 873.362
C 893.741 872.127 893.819 870.737 893.328 869.486
C 893.038 868.746 892.344 868.479 891.979 867.826
C 891.653 867.242 891.929 866.668 891.711 866.092
C 891.391 865.248 890.706 864.492 890.221 863.74
C 889.861 863.183 890.012 862.642 889.726 862.099
C 889.21 861.118 888.31 860.701 887.899 859.539
C 887.52 858.469 887.221 856.74 886.2 856.052
C 885.857 855.821 885.775 856.529 885.425 856.273
C 884.805 855.821 884.958 854.999 884.117 855.115
C 888.469 850.086 893.433 845.503 898.059 840.722
C 905.737 832.785 913.418 824.849 921.207 817.021
C 943.949 794.166 966.565 771.171 989.128 748.149
C 997.591 739.514 1006.08 730.872 1014.727 722.421
C 1016.869 720.328 1019.055 718.279 1021.194 716.184
C 1022.04 715.355 1022.715 714.26 1023.964 714.479 Z"
opacity="1" fill="rgb(117,80,71)" fill-rule="evenodd" />

</svg>